# xmcd
#
# Track frame offsets: 
#        150
#        18580
#        37037
#
# Disc length: 753 seconds
#
# Revision: 2
# Processed by: cddbd v1.5.2PL0 Copyright (c) Steve Scherf et al.
# Submitted via: ExactAudioCopy v0.99pb4
#
DISCID=1f02ef03
DTITLE=Living Colour - Love Rears Its Ugly Head Single (Promo)
DYEAR=1990
DGENRE=Alternative
TTITLE0=Love Rears Its Ugly Head (Album Edit)
TTITLE1=Love Rears Its Ugly Head (Soulpower Edit)
TTITLE2=Love Rears Its Ugly Head (Album Version)
EXTD=YEAR: 1998
EXTT0=
EXTT1=
EXTT2=
PLAYORDER=
